HIERARCHY
ROOT Hips
{
  OFFSET 50.9425 84.1273 6.87802
  CHANNELS 6 Xposition Yposition Zposition Zrotation Xrotation Yrotation
  JOINT spine
  {
    OFFSET 0 5.95438 0.342407
    CHANNELS 3 Zrotation Xrotation Yrotation
    JOINT spine1
    {
      OFFSET 0 8.85602 0
      CHANNELS 3 Zrotation Xrotation Yrotation
      JOINT spine2
      {
        OFFSET 0 8.48567 0
        CHANNELS 3 Zrotation Xrotation Yrotation
        JOINT Neck
        {
          OFFSET 0 21.7863 1.0387
          CHANNELS 3 Zrotation Xrotation Yrotation
          JOINT Head
          {
            OFFSET 0 6.5822 0
            CHANNELS 3 Zrotation Xrotation Yrotation
            End Site
            {
              OFFSET 0 15.9326 -5.25436
            }
          }
        }
        JOINT RightShoulder
        {
          OFFSET -3.57307 9.16386 -0.497525
          CHANNELS 3 Zrotation Xrotation Yrotation
          JOINT RightArm
          {
            OFFSET 0 12.0192 0
            CHANNELS 3 Zrotation Xrotation Yrotation
            JOINT RightArmRoll
            {
              OFFSET 0 6.06755 0
              CHANNELS 3 Zrotation Xrotation Yrotation
              JOINT RightForeArm
              {
                OFFSET 0 17.6726 0
                CHANNELS 3 Zrotation Xrotation Yrotation
                JOINT RightForeArmRoll
                {
                  OFFSET 0 6.80872 0
                  CHANNELS 3 Zrotation Xrotation Yrotation
                  JOINT RightHand
                  {
                    OFFSET 0 13.6636 0
                    CHANNELS 3 Zrotation Xrotation Yrotation
                    End Site
                    {
                      OFFSET 0 0 0
                    }
                  }
                }
              }
            }
          }
        }
        JOINT LeftShoulder
        {
          OFFSET 3.57307 9.16386 -0.497525
          CHANNELS 3 Zrotation Xrotation Yrotation
          JOINT LeftArm
          {
            OFFSET 0 12.0192 0
            CHANNELS 3 Zrotation Xrotation Yrotation
            JOINT LeftArmRoll
            {
              OFFSET 0 6.06755 0
              CHANNELS 3 Zrotation Xrotation Yrotation
              JOINT LeftForeArm
              {
                OFFSET 0 17.6726 0
                CHANNELS 3 Zrotation Xrotation Yrotation
                JOINT LeftForeArmRoll
                {
                  OFFSET 0 6.80872 0
                  CHANNELS 3 Zrotation Xrotation Yrotation
                  JOINT LeftHand
                  {
                    OFFSET 0 13.6636 0
                    CHANNELS 3 Zrotation Xrotation Yrotation
                    End Site
                    {
                      OFFSET 0 0 0
                    }
                  }
                }
              }
            }
          }
        }
      }
    }
  }
  JOINT RightUpLeg
  {
    OFFSET -5.27774 -0.967797 -0.811858
    CHANNELS 3 Zrotation Xrotation Yrotation
    JOINT RightUpLegRoll
    {
      OFFSET 0 16.0214 0
      CHANNELS 3 Zrotation Xrotation Yrotation
      JOINT RightLeg
      {
        OFFSET 0 -19.8401 0
        CHANNELS 3 Zrotation Xrotation Yrotation
        JOINT RightLegRoll
        {
          OFFSET 0 19.905 0
          CHANNELS 3 Zrotation Xrotation Yrotation
          JOINT RightFoot
          {
            OFFSET 0 16.5675 0
            CHANNELS 3 Zrotation Xrotation Yrotation
            JOINT RightToeBase
            {
              OFFSET 0 13.8496 0
              CHANNELS 3 Zrotation Xrotation Yrotation
              End Site
              {
                OFFSET 0.00587034 6.70728 -0.773117
              }
            }
          }
        }
      }
    }
  }
  JOINT LeftUpLeg
  {
    OFFSET 5.27774 -0.967797 -0.811858
    CHANNELS 3 Zrotation Xrotation Yrotation
    JOINT LeftUpLegRoll
    {
      OFFSET 0 16.0215 0
      CHANNELS 3 Zrotation Xrotation Yrotation
      JOINT LeftLeg
      {
        OFFSET 0 19.84 0
        CHANNELS 3 Zrotation Xrotation Yrotation
        JOINT LeftLegRoll
        {
          OFFSET 0 20.089 0
          CHANNELS 3 Zrotation Xrotation Yrotation
          JOINT LeftFoot
          {
            OFFSET 0 16.3835 0
            CHANNELS 3 Zrotation Xrotation Yrotation
            JOINT LeftToeBase
            {
              OFFSET 0 13.8496 0
              CHANNELS 3 Zrotation Xrotation Yrotation
              End Site
              {
                OFFSET -0.0263083 6.70728 -0.773116
              }
            }
          }
        }
      }
    }
  }
}
MOTION
Frames: 4
Frame Time: 0.00208333
52.0622 84.398 4.46787 -0.878737 -11.1046 -4.07358 0.325543 -0.0866163 0.0739935 0.641917 3.84051 0.112862 0.641509 5.48555 0.101958 -7.04596 12.559 0.229025 7.5766 2.65305 -1.69845 73.5517 1.92868 -0.75716 107.125 15.475 -7.31108 -3.55825e-014 -3.18055e-015 -1.11319e-014 -3.64525 -0.0254111 -1.99237 -8.6241e-006 -1.05048e-006 -3.01162 8.03011 -4.95138 0.69764 -68.5289 -3.71414 2.98456 -115.379 16.0867 14.2407 -3.27248e-006 -2.09951e-006 -2.03739e-006 3.64001 -0.0192187 1.99204 3.74332e-006 -1.61222e-006 3.01161 -8.03007 -4.95137 -0.697627 179.276 -4.82943 4.08448 -180 7.0151e-015 178.771 176.991 10.4025 179.924 1.35904e-006 7.65516e-007 0.145126 -19.2407 68.7391 20.1672 8.13649 25.2327 -3.48774 -179.378 -6.23977 -0.480007 4.54188e-006 -4.6773e-006 -1.23701 -2.05656 -10.6832 0.106097 1.26621e-006 1.71123e-006 -0.177412 19.7792 69.4187 -20.78 -8.13649 25.2327 3.48774 
52.0599 84.3907 4.47124 -0.877621 -11.1068 -4.07222 0.325508 -0.086977 0.0739955 0.640956 3.83907 0.112942 0.640547 5.48411 0.102066 -7.03605 12.5556 0.221277 7.56955 2.64987 -1.70291 73.5499 1.92363 -0.759224 107.12 15.4744 -7.30631 -1.19271e-015 9.54166e-015 -1.59028e-015 -3.64525 -0.0254111 -1.99237 -8.6241e-006 -1.05048e-006 -3.01162 8.03011 -4.95138 0.69764 -68.5104 -3.72707 2.98989 -115.402 16.0884 14.2636 -3.27248e-006 -2.09951e-006 -2.03739e-006 3.64001 -0.0192187 1.99204 3.74332e-006 -1.61222e-006 3.01161 -8.03007 -4.95137 -0.697627 179.276 -4.83503 4.08276 -180 7.0151e-015 178.771 176.994 10.3988 179.923 1.35904e-006 7.65516e-007 0.145126 -19.2407 68.7391 20.1672 8.13649 25.2327 -3.48774 -179.38 -6.24134 -0.478068 4.54188e-006 -4.6773e-006 -1.23701 -2.05552 -10.6843 0.106321 1.26621e-006 1.71123e-006 -0.177509 19.7797 69.4192 -20.7806 -8.13649 25.2327 3.48774 
52.0661 84.3939 4.46833 -0.876154 -11.109 -4.07083 0.325456 -0.0873647 0.0739977 0.639888 3.83758 0.11303 0.639477 5.48262 0.102184 -7.02625 12.5531 0.213489 7.56244 2.64585 -1.70744 73.548 1.91856 -0.761285 107.115 15.4741 -7.30259 -7.95139e-016 3.18055e-015 -1.59028e-015 -3.64525 -0.0254111 -1.99237 -8.6241e-006 -1.05048e-006 -3.01162 8.03011 -4.95138 0.69764 -68.4908 -3.74093 2.99561 -115.427 16.0897 14.2888 -3.27248e-006 -2.09951e-006 -2.03739e-006 3.64001 -0.0192187 1.99204 3.74332e-006 -1.61222e-006 3.01161 -8.03007 -4.95137 -0.697627 179.276 -4.84061 4.08117 -180 7.0151e-015 178.771 176.996 10.3952 179.922 1.35904e-006 7.65516e-007 0.145126 -19.2408 68.7391 20.1673 8.13649 25.2327 -3.48774 -179.383 -6.24284 -0.475741 4.54188e-006 -4.6773e-006 -1.23701 -2.05435 -10.6853 0.10656 1.26621e-006 1.71123e-006 -0.177596 19.7801 69.4197 -20.781 -8.13649 25.2327 3.48774 
52.0659 84.4012 4.47107 -0.874439 -11.1111 -4.0694 0.325393 -0.0877711 0.0739999 0.638744 3.83605 0.113123 0.638331 5.48109 0.10231 -7.01654 12.5511 0.205675 7.55527 2.64125 -1.71202 73.5462 1.91349 -0.763343 107.112 15.4741 -7.2996 8.74653e-015 9.54166e-015 3.18055e-015 -3.64525 -0.0254111 -1.99237 -8.6241e-006 -1.05048e-006 -3.01162 8.03011 -4.95138 0.69764 -68.4704 -3.75544 3.00162 -115.455 16.0908 14.3157 -3.27248e-006 -2.09951e-006 -2.03739e-006 3.64001 -0.0192187 1.99204 3.74332e-006 -1.61222e-006 3.01161 -8.03007 -4.95137 -0.697627 179.275 -4.84619 4.07967 -180 7.0151e-015 178.771 176.999 10.3914 179.921 1.35904e-006 7.65516e-007 0.145126 -19.2408 68.7392 20.1674 8.13649 25.2327 -3.48774 -179.387 -6.2443 -0.473142 4.54188e-006 -4.6773e-006 -1.23701 -2.05309 -10.6861 0.106811 1.26621e-006 1.71123e-006 -0.177676 19.7805 69.4201 -20.7814 -8.13649 25.2327 3.48774 
